<mxfile host="app.diagrams.net" modified="2022-10-26T09:03:39.214Z" agent="5.0 (Macintosh; Intel Mac OS X 10_15_7) AppleWebKit/537.36 (KHTML, like Gecko) Chrome/106.0.0.0 Safari/537.36" etag="73xQTocR27oCey6zu6xX" version="20.5.1" type="github">
  <diagram id="E7Li-SOSnWFFN81FZv6l" name="Page-1">
    <mxGraphModel dx="2276" dy="1894" grid="1" gridSize="10" guides="1" tooltips="1" connect="1" arrows="1" fold="1" page="1" pageScale="1" pageWidth="850" pageHeight="1100" math="0" shadow="0">
      <root>
        <mxCell id="0" />
        <mxCell id="1" parent="0" />
        <mxCell id="8P1dzayB41oCeFM_nhB3-1" value="&lt;font style=&quot;font-size: 16px;&quot;&gt;Genesis Block&lt;/font&gt;" style="rounded=1;whiteSpace=wrap;html=1;fillColor=#f8cecc;strokeColor=#b85450;" vertex="1" parent="1">
          <mxGeometry x="330" y="670" width="160" height="60" as="geometry" />
        </mxCell>
        <mxCell id="8P1dzayB41oCeFM_nhB3-2" value="H = 100" style="rounded=1;whiteSpace=wrap;html=1;fontSize=16;fillColor=#dae8fc;strokeColor=#6c8ebf;" vertex="1" parent="1">
          <mxGeometry x="350" y="560" width="120" height="60" as="geometry" />
        </mxCell>
        <mxCell id="8P1dzayB41oCeFM_nhB3-3" value="H = 200" style="rounded=1;whiteSpace=wrap;html=1;fontSize=16;fillColor=#dae8fc;strokeColor=#6c8ebf;" vertex="1" parent="1">
          <mxGeometry x="470" y="450" width="120" height="60" as="geometry" />
        </mxCell>
        <mxCell id="8P1dzayB41oCeFM_nhB3-4" value="H = 300" style="rounded=1;whiteSpace=wrap;html=1;fontSize=16;fillColor=#dae8fc;strokeColor=#6c8ebf;" vertex="1" parent="1">
          <mxGeometry x="470" y="350" width="120" height="60" as="geometry" />
        </mxCell>
        <mxCell id="8P1dzayB41oCeFM_nhB3-5" value="" style="rounded=1;whiteSpace=wrap;html=1;fontSize=16;" vertex="1" parent="1">
          <mxGeometry x="230" y="460" width="120" height="60" as="geometry" />
        </mxCell>
        <mxCell id="8P1dzayB41oCeFM_nhB3-6" value="" style="rounded=1;whiteSpace=wrap;html=1;fontSize=16;" vertex="1" parent="1">
          <mxGeometry x="110" y="350" width="120" height="60" as="geometry" />
        </mxCell>
        <mxCell id="8P1dzayB41oCeFM_nhB3-7" value="" style="rounded=1;whiteSpace=wrap;html=1;fontSize=16;" vertex="1" parent="1">
          <mxGeometry x="280" y="350" width="120" height="60" as="geometry" />
        </mxCell>
        <mxCell id="8P1dzayB41oCeFM_nhB3-8" value="" style="rounded=1;whiteSpace=wrap;html=1;fontSize=16;" vertex="1" parent="1">
          <mxGeometry x="110" y="230" width="120" height="60" as="geometry" />
        </mxCell>
        <mxCell id="8P1dzayB41oCeFM_nhB3-9" value="" style="rounded=1;whiteSpace=wrap;html=1;fontSize=16;" vertex="1" parent="1">
          <mxGeometry x="385" y="230" width="120" height="60" as="geometry" />
        </mxCell>
        <mxCell id="8P1dzayB41oCeFM_nhB3-10" value="H = 400" style="rounded=1;whiteSpace=wrap;html=1;fontSize=16;fillColor=#dae8fc;strokeColor=#6c8ebf;" vertex="1" parent="1">
          <mxGeometry x="560" y="230" width="120" height="60" as="geometry" />
        </mxCell>
        <mxCell id="8P1dzayB41oCeFM_nhB3-11" value="H = 500" style="rounded=1;whiteSpace=wrap;html=1;fontSize=16;fillColor=#dae8fc;strokeColor=#6c8ebf;" vertex="1" parent="1">
          <mxGeometry x="560" y="110" width="120" height="60" as="geometry" />
        </mxCell>
        <mxCell id="8P1dzayB41oCeFM_nhB3-12" value="H = 600" style="rounded=1;whiteSpace=wrap;html=1;fontSize=16;fillColor=#dae8fc;strokeColor=#6c8ebf;" vertex="1" parent="1">
          <mxGeometry x="560" width="120" height="60" as="geometry" />
        </mxCell>
        <mxCell id="8P1dzayB41oCeFM_nhB3-13" value="" style="endArrow=classic;html=1;rounded=0;fontSize=16;strokeWidth=1.5;dashed=1;exitX=0.5;exitY=1;exitDx=0;exitDy=0;entryX=0.5;entryY=0;entryDx=0;entryDy=0;" edge="1" parent="1" source="8P1dzayB41oCeFM_nhB3-2" target="8P1dzayB41oCeFM_nhB3-1">
          <mxGeometry width="50" height="50" relative="1" as="geometry">
            <mxPoint x="400" y="430" as="sourcePoint" />
            <mxPoint x="450" y="380" as="targetPoint" />
          </mxGeometry>
        </mxCell>
        <mxCell id="8P1dzayB41oCeFM_nhB3-14" value="" style="endArrow=classic;html=1;rounded=0;fontSize=16;strokeWidth=1.5;dashed=1;exitX=0.5;exitY=1;exitDx=0;exitDy=0;entryX=0.5;entryY=0;entryDx=0;entryDy=0;" edge="1" parent="1" source="8P1dzayB41oCeFM_nhB3-5" target="8P1dzayB41oCeFM_nhB3-2">
          <mxGeometry width="50" height="50" relative="1" as="geometry">
            <mxPoint x="430" y="630" as="sourcePoint" />
            <mxPoint x="430" y="680" as="targetPoint" />
          </mxGeometry>
        </mxCell>
        <mxCell id="8P1dzayB41oCeFM_nhB3-15" value="" style="endArrow=classic;html=1;rounded=0;fontSize=16;strokeWidth=1.5;dashed=1;exitX=0.5;exitY=1;exitDx=0;exitDy=0;entryX=0.5;entryY=0;entryDx=0;entryDy=0;" edge="1" parent="1" source="8P1dzayB41oCeFM_nhB3-3" target="8P1dzayB41oCeFM_nhB3-2">
          <mxGeometry width="50" height="50" relative="1" as="geometry">
            <mxPoint x="300" y="530" as="sourcePoint" />
            <mxPoint x="430" y="570" as="targetPoint" />
          </mxGeometry>
        </mxCell>
        <mxCell id="8P1dzayB41oCeFM_nhB3-16" value="" style="endArrow=classic;html=1;rounded=0;fontSize=16;strokeWidth=1.5;dashed=1;exitX=0.5;exitY=1;exitDx=0;exitDy=0;entryX=0.5;entryY=0;entryDx=0;entryDy=0;" edge="1" parent="1" source="8P1dzayB41oCeFM_nhB3-4" target="8P1dzayB41oCeFM_nhB3-3">
          <mxGeometry width="50" height="50" relative="1" as="geometry">
            <mxPoint x="540" y="520" as="sourcePoint" />
            <mxPoint x="420" y="570" as="targetPoint" />
          </mxGeometry>
        </mxCell>
        <mxCell id="8P1dzayB41oCeFM_nhB3-17" value="" style="endArrow=classic;html=1;rounded=0;fontSize=16;strokeWidth=1.5;dashed=1;exitX=0.5;exitY=1;exitDx=0;exitDy=0;entryX=0.5;entryY=0;entryDx=0;entryDy=0;" edge="1" parent="1" source="8P1dzayB41oCeFM_nhB3-7" target="8P1dzayB41oCeFM_nhB3-5">
          <mxGeometry width="50" height="50" relative="1" as="geometry">
            <mxPoint x="540" y="420" as="sourcePoint" />
            <mxPoint x="540" y="460" as="targetPoint" />
          </mxGeometry>
        </mxCell>
        <mxCell id="8P1dzayB41oCeFM_nhB3-18" value="" style="endArrow=classic;html=1;rounded=0;fontSize=16;strokeWidth=1.5;dashed=1;exitX=0.5;exitY=1;exitDx=0;exitDy=0;entryX=0.5;entryY=0;entryDx=0;entryDy=0;" edge="1" parent="1" source="8P1dzayB41oCeFM_nhB3-6" target="8P1dzayB41oCeFM_nhB3-5">
          <mxGeometry width="50" height="50" relative="1" as="geometry">
            <mxPoint x="350" y="420" as="sourcePoint" />
            <mxPoint x="300" y="470" as="targetPoint" />
          </mxGeometry>
        </mxCell>
        <mxCell id="8P1dzayB41oCeFM_nhB3-19" value="" style="endArrow=classic;html=1;rounded=0;fontSize=16;strokeWidth=1.5;dashed=1;exitX=0.5;exitY=1;exitDx=0;exitDy=0;entryX=0.5;entryY=0;entryDx=0;entryDy=0;" edge="1" parent="1" source="8P1dzayB41oCeFM_nhB3-8" target="8P1dzayB41oCeFM_nhB3-6">
          <mxGeometry width="50" height="50" relative="1" as="geometry">
            <mxPoint x="350" y="420" as="sourcePoint" />
            <mxPoint x="300" y="470" as="targetPoint" />
          </mxGeometry>
        </mxCell>
        <mxCell id="8P1dzayB41oCeFM_nhB3-20" value="" style="endArrow=classic;html=1;rounded=0;fontSize=16;strokeWidth=1.5;dashed=1;exitX=0.5;exitY=1;exitDx=0;exitDy=0;entryX=0.5;entryY=0;entryDx=0;entryDy=0;" edge="1" parent="1" source="8P1dzayB41oCeFM_nhB3-9" target="8P1dzayB41oCeFM_nhB3-4">
          <mxGeometry width="50" height="50" relative="1" as="geometry">
            <mxPoint x="350" y="420" as="sourcePoint" />
            <mxPoint x="300" y="470" as="targetPoint" />
          </mxGeometry>
        </mxCell>
        <mxCell id="8P1dzayB41oCeFM_nhB3-21" value="" style="endArrow=classic;html=1;rounded=0;fontSize=16;strokeWidth=1.5;dashed=1;exitX=0.5;exitY=1;exitDx=0;exitDy=0;entryX=0.5;entryY=0;entryDx=0;entryDy=0;" edge="1" parent="1" source="8P1dzayB41oCeFM_nhB3-10" target="8P1dzayB41oCeFM_nhB3-4">
          <mxGeometry width="50" height="50" relative="1" as="geometry">
            <mxPoint x="455" y="300" as="sourcePoint" />
            <mxPoint x="540" y="360" as="targetPoint" />
          </mxGeometry>
        </mxCell>
        <mxCell id="8P1dzayB41oCeFM_nhB3-22" value="" style="endArrow=classic;html=1;rounded=0;fontSize=16;strokeWidth=1.5;dashed=1;exitX=0.5;exitY=1;exitDx=0;exitDy=0;entryX=0.5;entryY=0;entryDx=0;entryDy=0;" edge="1" parent="1" source="8P1dzayB41oCeFM_nhB3-11" target="8P1dzayB41oCeFM_nhB3-10">
          <mxGeometry width="50" height="50" relative="1" as="geometry">
            <mxPoint x="630" y="300" as="sourcePoint" />
            <mxPoint x="540" y="360" as="targetPoint" />
          </mxGeometry>
        </mxCell>
        <mxCell id="8P1dzayB41oCeFM_nhB3-23" value="" style="endArrow=classic;html=1;rounded=0;fontSize=16;strokeWidth=1.5;dashed=1;exitX=0.5;exitY=1;exitDx=0;exitDy=0;entryX=0.5;entryY=0;entryDx=0;entryDy=0;" edge="1" parent="1" source="8P1dzayB41oCeFM_nhB3-12" target="8P1dzayB41oCeFM_nhB3-11">
          <mxGeometry width="50" height="50" relative="1" as="geometry">
            <mxPoint x="630" y="180" as="sourcePoint" />
            <mxPoint x="630" y="240" as="targetPoint" />
          </mxGeometry>
        </mxCell>
        <mxCell id="8P1dzayB41oCeFM_nhB3-25" value="" style="endArrow=none;dashed=1;html=1;rounded=0;strokeWidth=1;fontSize=16;" edge="1" parent="1">
          <mxGeometry width="50" height="50" relative="1" as="geometry">
            <mxPoint x="-40" y="640" as="sourcePoint" />
            <mxPoint x="840" y="640" as="targetPoint" />
          </mxGeometry>
        </mxCell>
        <mxCell id="8P1dzayB41oCeFM_nhB3-27" value="" style="endArrow=none;dashed=1;html=1;rounded=0;strokeWidth=1;fontSize=16;" edge="1" parent="1">
          <mxGeometry width="50" height="50" relative="1" as="geometry">
            <mxPoint x="-40" y="760" as="sourcePoint" />
            <mxPoint x="840" y="760" as="targetPoint" />
          </mxGeometry>
        </mxCell>
        <mxCell id="8P1dzayB41oCeFM_nhB3-28" value="" style="endArrow=none;dashed=1;html=1;rounded=0;strokeWidth=1;fontSize=16;" edge="1" parent="1">
          <mxGeometry width="50" height="50" relative="1" as="geometry">
            <mxPoint x="-40" y="540" as="sourcePoint" />
            <mxPoint x="840" y="540" as="targetPoint" />
          </mxGeometry>
        </mxCell>
        <mxCell id="8P1dzayB41oCeFM_nhB3-29" value="" style="endArrow=none;dashed=1;html=1;rounded=0;strokeWidth=1;fontSize=16;" edge="1" parent="1">
          <mxGeometry width="50" height="50" relative="1" as="geometry">
            <mxPoint x="-40" y="430" as="sourcePoint" />
            <mxPoint x="840" y="430" as="targetPoint" />
          </mxGeometry>
        </mxCell>
        <mxCell id="8P1dzayB41oCeFM_nhB3-30" value="" style="endArrow=none;dashed=1;html=1;rounded=0;strokeWidth=1;fontSize=16;" edge="1" parent="1">
          <mxGeometry width="50" height="50" relative="1" as="geometry">
            <mxPoint x="-40" y="320" as="sourcePoint" />
            <mxPoint x="840" y="320" as="targetPoint" />
          </mxGeometry>
        </mxCell>
        <mxCell id="8P1dzayB41oCeFM_nhB3-31" value="" style="endArrow=none;dashed=1;html=1;rounded=0;strokeWidth=1;fontSize=16;" edge="1" parent="1">
          <mxGeometry width="50" height="50" relative="1" as="geometry">
            <mxPoint x="-40" y="200" as="sourcePoint" />
            <mxPoint x="845" y="200" as="targetPoint" />
          </mxGeometry>
        </mxCell>
        <mxCell id="8P1dzayB41oCeFM_nhB3-32" value="" style="endArrow=none;dashed=1;html=1;rounded=0;strokeWidth=1;fontSize=16;" edge="1" parent="1">
          <mxGeometry width="50" height="50" relative="1" as="geometry">
            <mxPoint x="-40" y="80" as="sourcePoint" />
            <mxPoint x="840" y="80" as="targetPoint" />
          </mxGeometry>
        </mxCell>
        <mxCell id="8P1dzayB41oCeFM_nhB3-34" value="&lt;font style=&quot;font-size: 14px;&quot;&gt;Block Height = 0&lt;/font&gt;" style="text;html=1;strokeColor=none;fillColor=none;align=center;verticalAlign=middle;whiteSpace=wrap;rounded=0;fontSize=16;" vertex="1" parent="1">
          <mxGeometry x="-40" y="695" width="140" height="10" as="geometry" />
        </mxCell>
        <mxCell id="8P1dzayB41oCeFM_nhB3-35" value="&lt;font style=&quot;font-size: 14px;&quot;&gt;Block Height = 100&lt;/font&gt;" style="text;html=1;strokeColor=none;fillColor=none;align=center;verticalAlign=middle;whiteSpace=wrap;rounded=0;fontSize=16;" vertex="1" parent="1">
          <mxGeometry x="-40" y="585" width="140" height="10" as="geometry" />
        </mxCell>
        <mxCell id="8P1dzayB41oCeFM_nhB3-36" value="&lt;font style=&quot;font-size: 14px;&quot;&gt;Block Height = 200&lt;/font&gt;" style="text;html=1;strokeColor=none;fillColor=none;align=center;verticalAlign=middle;whiteSpace=wrap;rounded=0;fontSize=16;" vertex="1" parent="1">
          <mxGeometry x="-40" y="485" width="140" height="10" as="geometry" />
        </mxCell>
        <mxCell id="8P1dzayB41oCeFM_nhB3-37" value="&lt;font style=&quot;font-size: 14px;&quot;&gt;Block Height = 300&lt;/font&gt;" style="text;html=1;strokeColor=none;fillColor=none;align=center;verticalAlign=middle;whiteSpace=wrap;rounded=0;fontSize=16;" vertex="1" parent="1">
          <mxGeometry x="-40" y="375" width="140" height="10" as="geometry" />
        </mxCell>
        <mxCell id="8P1dzayB41oCeFM_nhB3-39" value="&lt;font style=&quot;font-size: 14px;&quot;&gt;Block Height = 400&lt;br&gt;&lt;/font&gt;" style="text;html=1;strokeColor=none;fillColor=none;align=center;verticalAlign=middle;whiteSpace=wrap;rounded=0;fontSize=16;" vertex="1" parent="1">
          <mxGeometry x="-40" y="255" width="140" height="10" as="geometry" />
        </mxCell>
        <mxCell id="8P1dzayB41oCeFM_nhB3-40" value="&lt;font style=&quot;font-size: 14px;&quot;&gt;Block Height = 500&lt;/font&gt;" style="text;html=1;strokeColor=none;fillColor=none;align=center;verticalAlign=middle;whiteSpace=wrap;rounded=0;fontSize=16;" vertex="1" parent="1">
          <mxGeometry x="-40" y="135" width="140" height="10" as="geometry" />
        </mxCell>
        <mxCell id="8P1dzayB41oCeFM_nhB3-41" value="&lt;font style=&quot;font-size: 14px;&quot;&gt;Block Height = 600&lt;/font&gt;" style="text;html=1;strokeColor=none;fillColor=none;align=center;verticalAlign=middle;whiteSpace=wrap;rounded=0;fontSize=16;" vertex="1" parent="1">
          <mxGeometry x="-40" y="25" width="140" height="10" as="geometry" />
        </mxCell>
        <mxCell id="8P1dzayB41oCeFM_nhB3-42" value="" style="endArrow=none;dashed=1;html=1;rounded=0;strokeWidth=1;fontSize=16;" edge="1" parent="1">
          <mxGeometry width="50" height="50" relative="1" as="geometry">
            <mxPoint x="-40" y="-20" as="sourcePoint" />
            <mxPoint x="840" y="-20" as="targetPoint" />
          </mxGeometry>
        </mxCell>
      </root>
    </mxGraphModel>
  </diagram>
</mxfile>
